# xmcd
#
# Track frame offsets:
# 150
# 14090
# 33040
# 50635
# 62486
# 81573
# 96114
# 109142
# 125194
# 141895
# 157512
# 172930
# 185321
# 201489
# 216748
# 230615
#
# Disc length: 3297 seconds
#
#
# Revision: 0
# Processed by: cddbd v1.5.2PL0 Copyright (c) Steve Scherf et al.
# Submitted via: FreeRIP 2.80 
#
DISCID=e70cdf10
DTITLE=Ed Marques e Alessandro - Ed Marques e Alessandro
DYEAR=1900
DGENRE=Country
TTITLE0=Culpa
TTITLE1=Senhora Saudade
TTITLE2=Malagueña
TTITLE3=Tchau, Tchau Solidão
TTITLE4=Sol Do Meio Dia
TTITLE5=Ninguém Merece
TTITLE6=Com Um Trem Dentro Do Zóio
TTITLE7=Por Ela
TTITLE8=Índia
TTITLE9=Sotaque Do Interior
TTITLE10=Nossas Diferenças
TTITLE11=Nas Rédeas Da Paixão
TTITLE12=Vem Comigo
TTITLE13=Chopp, Carro e Futebol
TTITLE14=Amanhecer No Sertão
TTITLE15=Chora Minha Viola
EXTD=
EXTT0=
EXTT1=
EXTT2=
EXTT3=
EXTT4=
EXTT5=
EXTT6=
EXTT7=
EXTT8=
EXTT9=
EXTT10=
EXTT11=
EXTT12=
EXTT13=
EXTT14=
EXTT15=
PLAYORDER=
